<svg width="360" height="360" viewBox="0 0 360 360" fill="none" xmlns="http://www.w3.org/2000/svg">
<g clip-path="url(#clip0_407_37)">
<mask id="mask0_407_37" style="mask-type:alpha" maskUnits="userSpaceOnUse" x="-40" y="-40" width="446" height="425">
<path d="M184.607 -39.3691L-39.0977 171.34L181.899 384.886L405.604 174.178L184.607 -39.3691Z" fill="#A1CCC9"/>
</mask>
<g mask="url(#mask0_407_37)">
<path opacity="0.0344828" d="M329.694 217.371C328.953 219.411 327.356 221.139 324.833 222.521C322.302 223.907 318.899 224.909 314.678 225.507C306.239 226.7 294.75 226.242 280.988 224.214C253.483 220.161 217.132 209.869 178.472 194.284C139.812 178.699 106.221 160.796 83.1676 144.469C71.6341 136.3 62.7861 128.559 57.2549 121.733C54.4896 118.321 52.5884 115.179 51.5812 112.367C50.5754 109.564 50.4796 107.152 51.2191 105.111C51.9602 103.072 53.5576 101.343 56.0802 99.9616C58.6113 98.5752 62.0144 97.573 66.2352 96.976C74.6743 95.783 86.1634 96.2401 99.9256 98.2686C127.43 102.322 163.782 112.614 202.441 128.199C241.102 143.783 274.692 161.686 297.746 178.014C309.279 186.183 318.127 193.924 323.658 200.749C326.424 204.162 328.325 207.303 329.332 210.115C330.338 212.918 330.434 215.33 329.694 217.371Z" stroke="#DEE2E5" stroke-width="1.5"/>
<path opacity="0.0689655" d="M324.703 230.913C323.797 232.874 322.064 234.446 319.441 235.589C316.808 236.736 313.34 237.422 309.092 237.63C300.599 238.046 289.208 236.541 275.688 233.269C248.664 226.729 213.358 213.179 176.194 194.157C139.03 175.135 107.102 154.273 85.5238 135.937C74.7289 126.763 66.5683 118.259 61.6335 110.97C59.1654 107.326 57.5346 104.029 56.766 101.143C55.9984 98.2635 56.1023 95.8569 57.0077 93.896C57.9122 91.9369 59.6456 90.3643 62.2699 89.2201C64.9023 88.0744 68.3708 87.3888 72.6169 87.18C81.1113 86.7645 92.5028 88.2689 106.023 91.5404C133.047 98.0817 168.352 111.631 205.516 130.653C242.679 149.675 274.608 170.538 296.186 188.874C306.982 198.047 315.142 206.55 320.077 213.839C322.545 217.485 324.176 220.78 324.945 223.668C325.712 226.546 325.608 228.953 324.703 230.913Z" stroke="#DEE2E5" stroke-width="1.5"/>
<path opacity="0.103448" d="M318.715 243.916C317.652 245.783 315.798 247.187 313.094 248.084C310.381 248.983 306.875 249.347 302.632 249.166C294.151 248.802 282.944 246.265 269.767 241.776C243.429 232.801 209.435 216.102 174.044 193.792C138.653 171.483 108.622 147.823 88.6762 127.62C78.6981 117.514 71.2849 108.314 66.9784 100.616C64.8251 96.7672 63.4771 93.3406 62.95 90.4007C62.4255 87.4687 62.7283 85.0854 63.7911 83.2197C64.8536 81.3526 66.7078 79.9485 69.4112 79.0522C72.1239 78.154 75.6317 77.7891 79.8726 77.9711C88.355 78.3333 99.5612 80.8715 112.738 85.3609C139.077 94.3349 173.072 111.035 208.462 133.343C243.852 155.653 273.883 179.314 293.83 199.515C303.808 209.622 311.221 218.822 315.526 226.52C317.68 230.369 319.029 233.795 319.555 236.736C320.079 239.668 319.778 242.05 318.715 243.916Z" stroke="#DEE2E5" stroke-width="1.5"/>
<path opacity="0.137931" d="M311.786 256.291C310.576 258.049 308.615 259.275 305.851 259.919C303.08 260.564 299.562 260.605 295.359 260.035C286.952 258.897 276.016 255.348 263.282 249.677C237.828 238.341 205.397 218.625 172.041 193.202C138.684 167.78 110.769 141.507 92.6012 119.596C83.5106 108.634 76.8979 98.8083 73.2515 90.7613C71.4278 86.7365 70.3686 83.2072 70.0874 80.2356C69.8079 77.2737 70.306 74.9323 71.5166 73.1737C72.7277 71.4164 74.6881 70.1899 77.4516 69.5462C80.2233 68.9011 83.7412 68.8594 87.9446 69.4296C96.3506 70.5674 107.287 74.1176 120.021 79.7878C145.474 91.1234 177.905 110.841 211.262 136.262C244.618 161.685 272.533 187.959 290.701 209.87C299.791 220.832 306.404 230.657 310.051 238.705C311.875 242.728 312.933 246.258 313.214 249.229C313.494 252.192 312.997 254.533 311.786 256.291Z" stroke="#DEE2E5" stroke-width="1.5"/>
<path opacity="0.172414" d="M303.978 267.947C302.629 269.583 300.579 270.622 297.778 271.008C294.968 271.394 291.466 271.112 287.333 270.16C279.067 268.256 268.484 263.723 256.287 256.916C231.909 243.31 201.28 220.731 170.203 192.396C139.125 164.06 113.529 135.377 97.2651 111.927C89.1278 100.196 83.3611 89.8209 80.3967 81.4863C78.9143 77.3184 78.1522 73.7129 78.1177 70.7342C78.0842 67.7627 78.7711 65.4815 80.1206 63.8446C81.4689 62.2082 83.5193 61.1691 86.3206 60.7841C89.1298 60.3977 92.6321 60.6789 96.7649 61.6309C105.031 63.5361 115.614 68.0677 127.811 74.8752C152.189 88.4812 182.818 111.061 213.896 139.396C244.973 167.731 270.569 196.413 286.833 219.864C294.97 231.595 300.737 241.97 303.701 250.305C305.184 254.473 305.946 258.078 305.981 261.058C306.014 264.029 305.327 266.31 303.978 267.947Z" stroke="#DEE2E5" stroke-width="1.5"/>
<path opacity="0.206897" d="M295.365 278.802C293.889 280.304 291.765 281.148 288.949 281.273C286.123 281.399 282.664 280.796 278.632 279.469C270.569 276.815 260.418 271.335 248.849 263.446C225.725 247.677 197.125 222.413 168.549 191.387C139.973 160.361 116.876 129.495 102.629 104.688C95.5025 92.2773 90.6191 81.4354 88.3559 72.8773C87.2244 68.5982 86.7625 64.945 86.9725 61.9791C87.1831 59.0235 88.0542 56.8188 89.529 55.3171C91.0051 53.815 93.129 52.9703 95.9467 52.8453C98.7711 52.7193 102.23 53.3223 106.263 54.6499C114.325 57.3029 124.476 62.7832 136.045 70.6723C159.169 86.4416 187.769 111.704 216.345 142.731C244.921 173.757 268.018 204.624 282.264 229.43C289.392 241.841 294.275 252.683 296.538 261.241C297.67 265.52 298.132 269.174 297.921 272.139C297.711 275.095 296.84 277.3 295.365 278.802Z" stroke="#DEE2E5" stroke-width="1.5"/>
<path opacity="0.241379" d="M286.029 288.779C284.438 290.135 282.257 290.778 279.447 290.642C276.627 290.506 273.238 289.587 269.338 287.896C261.539 284.514 251.895 278.13 241.037 269.222C219.338 251.414 192.968 223.666 167.096 190.193C141.222 156.72 120.784 123.911 108.649 97.9435C102.578 84.9502 98.6111 73.7245 97.0606 65.0113C96.2862 60.6528 96.1256 56.9794 96.5769 54.0526C97.0279 51.1332 98.074 49.0243 99.6635 47.6674C101.254 46.3099 103.434 45.6687 106.245 45.8039C109.065 45.9391 112.455 46.8584 116.355 48.5501C124.153 51.9315 133.797 58.3155 144.654 67.2244C166.355 85.0318 192.724 112.78 218.597 146.253C244.469 179.726 264.908 212.535 277.043 238.503C283.114 251.495 287.081 262.722 288.632 271.435C289.406 275.792 289.567 279.466 289.115 282.393C288.664 285.312 287.618 287.422 286.029 288.779Z" stroke="#DEE2E5" stroke-width="1.5"/>
<path opacity="0.275862" d="M276.057 297.806C274.365 299.007 272.145 299.444 269.361 299.048C266.569 298.652 263.274 297.425 259.535 295.383C252.056 291.3 242.989 284.063 232.921 274.206C212.798 254.501 188.845 224.487 165.851 188.83C142.857 153.172 125.213 118.68 115.265 91.7526C110.289 78.281 107.259 66.7587 106.429 57.9568C106.012 53.5557 106.153 49.8903 106.841 47.0246C107.527 44.1655 108.738 42.166 110.43 40.9653C112.121 39.7647 114.341 39.3277 117.125 39.7231C119.917 40.1202 123.212 41.3478 126.951 43.3886C134.429 47.4721 143.497 54.7082 153.564 64.5663C173.688 84.2698 197.641 114.285 220.634 149.942C243.629 185.599 261.272 220.092 271.221 247.019C276.197 260.491 279.227 272.013 280.057 280.815C280.473 285.216 280.333 288.881 279.646 291.748C278.959 294.606 277.747 296.606 276.057 297.806Z" stroke="#DEE2E5" stroke-width="1.5"/>
<path opacity="0.310345" d="M265.547 305.829C263.768 306.865 261.525 307.092 258.789 306.441C256.045 305.787 252.869 304.262 249.316 301.886C242.213 297.135 233.785 289.103 224.576 278.374C206.169 256.928 184.79 224.883 164.826 187.322C144.861 149.76 130.119 113.852 122.417 86.1752C118.564 72.3298 116.488 60.6003 116.378 51.7786C116.321 47.3675 116.759 43.739 117.676 40.9545C118.591 38.1798 119.958 36.3047 121.737 35.2696C123.517 34.2344 125.759 34.0063 128.496 34.6583C131.239 35.3111 134.416 36.8359 137.968 39.2128C145.072 43.9639 153.5 51.9947 162.709 62.7241C181.117 84.1707 202.495 116.215 222.46 153.777C242.424 191.338 257.164 227.247 264.868 254.923C268.722 268.769 270.796 280.499 270.907 289.32C270.962 293.731 270.525 297.359 269.609 300.143C268.695 302.919 267.326 304.794 265.547 305.829Z" stroke="#DEE2E5" stroke-width="1.5"/>
<path opacity="0.344828" d="M254.579 312.815C252.724 313.679 250.473 313.697 247.804 312.795C245.128 311.891 242.091 310.08 238.749 307.39C232.068 302.009 224.335 293.244 216.046 281.727C199.474 258.708 180.81 224.88 164.001 185.701C147.192 146.523 135.445 109.473 130.032 81.2574C127.325 67.1404 126.214 55.293 126.822 46.5178C127.126 42.1296 127.856 38.5638 128.994 35.8831C130.13 33.2095 131.644 31.4744 133.499 30.6101C135.353 29.7475 137.604 29.73 140.273 30.6311C142.951 31.5347 145.987 33.3457 149.328 36.0364C156.009 41.4175 163.741 50.1813 172.033 61.6988C188.603 84.7186 207.268 118.546 224.077 157.725C240.886 196.903 252.632 233.953 258.045 262.169C260.753 276.285 261.863 288.133 261.255 296.909C260.951 301.297 260.222 304.862 259.083 307.543C257.947 310.216 256.434 311.951 254.579 312.815Z" stroke="#DEE2E5" stroke-width="1.5"/>
<path opacity="0.37931" d="M243.199 318.774C241.28 319.462 239.036 319.271 236.45 318.128C233.856 316.981 230.979 314.9 227.869 311.916C221.652 305.947 214.664 296.519 207.347 284.301C192.721 259.88 176.895 224.518 163.356 184.009C149.817 143.499 141.149 105.574 138.07 77.0187C136.529 62.7312 136.394 50.8488 137.719 42.179C138.382 37.8439 139.401 34.3665 140.756 31.8059C142.107 29.2527 143.757 27.6676 145.677 26.98C147.596 26.2929 149.841 26.483 152.427 27.6264C155.021 28.7728 157.898 30.8547 161.007 33.8387C167.225 39.8073 174.211 49.2362 181.529 61.4548C196.155 85.875 211.981 121.236 225.52 161.746C239.059 202.255 247.726 240.181 250.806 268.737C252.347 283.024 252.483 294.906 251.158 303.575C250.495 307.911 249.475 311.388 248.12 313.948C246.77 316.501 245.118 318.087 243.199 318.774Z" stroke="#DEE2E5" stroke-width="1.5"/>
<path opacity="0.413793" d="M231.41 323.732C229.436 324.241 227.21 323.846 224.723 322.471C222.229 321.091 219.528 318.756 216.671 315.5C210.958 308.99 204.765 298.964 198.472 286.132C185.896 260.483 173.03 223.834 162.875 182.272C152.72 140.709 147.214 102.165 146.511 73.4591C146.158 59.0969 147.009 47.257 149.053 38.7491C150.075 34.495 151.382 31.1273 152.947 28.703C154.508 26.2849 156.288 24.8579 158.262 24.35C160.236 23.842 162.46 24.2374 164.948 25.6127C167.443 26.9911 170.143 29.3263 172.999 32.582C178.712 39.0933 184.907 49.1188 191.199 61.9513C203.775 87.5996 216.642 124.248 226.797 165.811C236.952 207.374 242.456 245.918 243.161 274.624C243.512 288.986 242.661 300.826 240.618 309.334C239.597 313.588 238.289 316.955 236.723 319.38C235.163 321.798 233.382 323.224 231.41 323.732Z" stroke="#DEE2E5" stroke-width="1.5"/>
<path opacity="0.448276" d="M219.254 327.673C217.238 328 215.048 327.403 212.676 325.807C210.296 324.206 207.793 321.633 205.209 318.129C200.043 311.123 194.691 300.57 189.475 287.212C179.05 260.513 169.258 222.828 162.589 180.494C155.919 138.161 153.645 99.2579 155.348 70.5944C156.2 56.2536 158.043 44.5344 160.8 36.244C162.178 32.099 163.766 28.8634 165.535 26.5897C167.298 24.324 169.198 23.0637 171.213 22.7366C173.229 22.4109 175.42 23.0075 177.792 24.6039C180.171 26.2052 182.675 28.778 185.258 32.282C190.425 39.2886 195.777 49.8407 200.992 63.1989C211.417 89.898 221.209 127.582 227.879 169.916C234.549 212.25 236.822 251.152 235.12 279.816C234.268 294.157 232.425 305.876 229.668 314.166C228.29 318.312 226.701 321.548 224.933 323.821C223.17 326.087 221.271 327.346 219.254 327.673Z" stroke="#DEE2E5" stroke-width="1.5"/>
<path opacity="0.482759" d="M206.836 330.539C204.793 330.681 202.652 329.887 200.413 328.081C198.169 326.268 195.88 323.476 193.592 319.748C189.014 312.295 184.549 301.288 180.456 287.499C172.274 259.937 165.65 221.481 162.538 178.675C159.428 135.868 160.424 96.8818 164.536 68.4619C166.594 54.2438 169.423 42.7297 172.877 34.7153C174.604 30.7088 176.465 27.6271 178.424 25.5216C180.379 23.4224 182.384 22.3399 184.428 22.1974C186.47 22.0554 188.612 22.849 190.851 24.6564C193.095 26.4677 195.382 29.2601 197.671 32.9879C202.249 40.4421 206.715 51.448 210.808 65.2372C218.988 92.8002 225.614 131.255 228.725 174.062C231.836 216.869 230.839 255.855 226.726 284.275C224.67 298.492 221.84 310.007 218.387 318.021C216.66 322.028 214.798 325.109 212.839 327.214C210.885 329.314 208.88 330.396 206.836 330.539Z" stroke="#DEE2E5" stroke-width="1.5"/>
<path opacity="0.517241" d="M194.277 332.28C192.223 332.237 190.147 331.25 188.062 329.245C185.971 327.234 183.917 324.242 181.942 320.317C177.992 312.468 174.451 301.088 171.517 286.966C165.654 258.739 162.261 219.791 162.748 176.824C163.235 133.856 167.508 95.0717 174.008 67.1087C177.261 53.1181 181.057 41.8933 185.183 34.2158C187.247 30.3776 189.366 27.4741 191.504 25.5536C193.632 23.6375 195.729 22.7402 197.783 22.7846C199.839 22.8272 201.913 23.8138 203.998 25.8197C206.091 27.8304 208.144 30.8222 210.119 34.7467C214.07 42.5954 217.611 53.976 220.543 68.0984C226.408 96.3254 229.799 135.274 229.313 178.241C228.827 221.207 224.553 259.992 218.053 287.956C214.801 301.947 211.005 313.171 206.879 320.848C204.815 324.687 202.694 327.59 200.559 329.511C198.428 331.427 196.332 332.324 194.277 332.28Z" stroke="#DEE2E5" stroke-width="1.5"/>
<path opacity="0.551724" d="M181.694 332.866C179.644 332.635 177.653 331.463 175.737 329.273C173.814 327.078 172.013 323.907 170.368 319.813C167.079 311.625 164.495 299.953 162.747 285.603C159.256 256.918 159.133 217.767 163.223 174.96C167.314 132.154 174.839 93.8632 183.681 66.5659C188.106 52.9093 192.842 42.0603 197.61 34.779C199.994 31.1393 202.357 28.4366 204.653 26.7144C206.942 24.9993 209.112 24.2939 211.163 24.5243C213.214 24.7559 215.203 25.9276 217.12 28.1175C219.042 30.3131 220.843 33.4847 222.488 37.5786C225.778 45.7651 228.363 57.4376 230.109 71.7885C233.601 100.473 233.725 139.624 229.633 182.431C225.542 225.238 218.017 263.529 209.175 290.826C204.751 304.482 200.015 315.331 195.247 322.611C192.863 326.252 190.5 328.955 188.204 330.676C185.914 332.392 183.744 333.097 181.694 332.866Z" stroke="#DEE2E5" stroke-width="1.5"/>
<path opacity="0.586207" d="M169.197 332.286C167.167 331.87 165.277 330.518 163.545 328.16C161.809 325.795 160.275 322.468 158.974 318.234C156.373 309.769 154.769 297.892 154.225 283.419C153.138 254.49 156.293 215.43 163.964 173.107C171.635 130.785 182.36 93.2794 193.479 66.8585C199.043 53.6414 204.683 43.2524 210.056 36.4254C212.743 33.0118 215.33 30.531 217.768 29.0234C220.199 27.5211 222.427 27.016 224.455 27.4322C226.485 27.8492 228.375 29.2002 230.107 31.5586C231.843 33.9246 233.377 37.2513 234.678 41.4849C237.279 49.9506 238.883 61.8268 239.427 76.3005C240.514 105.229 237.359 144.289 229.688 186.612C222.017 228.934 211.292 266.44 200.173 292.86C194.609 306.078 188.969 316.467 183.596 323.294C180.909 326.707 178.322 329.188 175.884 330.695C173.453 332.198 171.226 332.703 169.197 332.286Z" stroke="#DEE2E5" stroke-width="1.5"/>
<path opacity="0.62069" d="M156.89 330.543C154.898 329.942 153.124 328.421 151.592 325.911C150.054 323.393 148.8 319.935 147.855 315.593C145.965 306.911 145.355 294.918 146.021 280.432C147.353 251.477 153.768 212.803 164.968 171.287C176.167 129.771 190.012 93.3398 203.326 68.0014C209.987 55.3241 216.489 45.4767 222.426 39.1565C225.395 35.9971 228.185 33.7586 230.747 32.4775C233.3 31.2005 235.567 30.9001 237.559 31.5006C239.551 32.1024 241.327 33.6223 242.858 36.1336C244.395 38.6502 245.649 42.1091 246.595 46.451C248.485 55.1322 249.094 67.1263 248.428 81.6124C247.096 110.567 240.681 149.241 229.481 190.757C218.283 232.272 204.438 268.705 191.123 294.043C184.462 306.72 177.961 316.568 172.023 322.887C169.055 326.047 166.264 328.285 163.703 329.566C161.149 330.844 158.882 331.144 156.89 330.543Z" stroke="#DEE2E5" stroke-width="1.5"/>
<path opacity="0.655172" d="M144.875 327.654C142.936 326.872 141.289 325.194 139.97 322.549C138.645 319.897 137.682 316.332 137.1 311.915C135.936 303.082 136.328 291.062 138.201 276.672C141.946 247.91 151.579 209.917 166.225 169.526C180.871 129.136 197.735 94.0582 213.144 69.9987C220.853 57.9619 228.166 48.7333 234.621 42.9719C237.85 40.0908 240.823 38.1138 243.488 37.0703C246.145 36.0283 248.433 35.9369 250.372 36.718C252.311 37.5005 253.957 39.178 255.276 41.8228C256.601 44.476 257.565 48.04 258.147 52.4582C259.311 61.2914 258.919 73.3117 257.045 87.7009C253.3 116.462 243.668 154.456 229.021 194.846C214.375 235.237 197.511 270.314 182.102 294.374C174.394 306.41 167.08 315.64 160.625 321.401C157.396 324.282 154.423 326.259 151.759 327.303C149.102 328.344 146.813 328.436 144.875 327.654Z" stroke="#DEE2E5" stroke-width="1.5"/>
<path opacity="0.689655" d="M133.243 323.644C131.374 322.686 129.87 320.861 128.771 318.102C127.671 315.335 127.006 311.69 126.791 307.23C126.366 298.311 127.759 286.355 130.827 272.171C136.962 243.82 149.742 206.799 167.728 167.845C185.714 128.892 205.472 95.4418 222.859 72.8498C231.558 61.5479 239.628 53.0101 246.552 47.853C250.016 45.274 253.149 43.5751 255.896 42.7766C258.635 41.9825 260.927 42.0988 262.798 43.0563C264.669 44.0139 266.173 45.8394 267.27 48.598C268.372 51.3655 269.037 55.011 269.25 59.4704C269.675 68.3893 268.284 80.3456 265.214 94.5288C259.081 122.88 246.3 159.902 228.314 198.856C210.328 237.809 190.571 271.259 173.184 293.851C164.485 305.153 156.414 313.691 149.489 318.848C146.027 321.426 142.892 323.126 140.146 323.924C137.406 324.719 135.114 324.602 133.243 323.644Z" stroke="#DEE2E5" stroke-width="1.5"/>
<path opacity="0.724138" d="M122.092 318.545C120.303 317.418 118.954 315.459 118.087 312.606C117.217 309.744 116.856 306.047 117.014 301.577C117.33 292.639 119.714 280.839 123.957 266.968C132.438 239.244 148.273 203.48 169.466 166.265C190.659 129.049 213.163 97.4879 232.399 76.5427C242.023 66.0644 250.789 58.2859 258.131 53.7772C261.802 51.5222 265.072 50.1129 267.88 49.5696C270.68 49.0264 272.959 49.3543 274.747 50.4813C276.535 51.608 277.884 53.5673 278.751 56.4209C279.62 59.2831 279.981 62.98 279.823 67.4499C279.508 76.3867 277.124 88.1886 272.881 102.058C264.401 129.782 248.565 165.547 227.372 202.761C206.179 239.976 183.675 271.538 164.439 292.483C154.816 302.962 146.05 310.74 138.708 315.249C135.037 317.504 131.767 318.913 128.958 319.457C126.158 319.999 123.879 319.672 122.092 318.545Z" stroke="#DEE2E5" stroke-width="1.5"/>
<path opacity="0.758621" d="M111.503 312.402C109.812 311.113 108.627 309.034 107.998 306.108C107.368 303.172 107.315 299.449 107.842 295.004C108.9 286.115 112.258 274.559 117.644 261.109C128.41 234.225 147.184 199.994 171.427 164.809C195.672 129.623 220.755 100.197 241.695 81.0667C252.171 71.4945 261.568 64.5392 269.271 60.7149C273.123 58.8024 276.503 57.697 279.352 57.4119C282.193 57.1283 284.441 57.6651 286.131 58.9539C287.823 60.2423 289.008 62.3216 289.637 65.2483C290.267 68.1836 290.321 71.9064 289.793 76.3511C288.736 85.2407 285.378 96.7967 279.991 110.246C269.226 137.13 250.451 171.361 226.207 206.547C201.964 241.733 176.88 271.157 155.94 290.289C145.464 299.86 136.067 306.816 128.365 310.641C124.512 312.553 121.131 313.659 118.283 313.943C115.442 314.227 113.194 313.691 111.503 312.402Z" stroke="#DEE2E5" stroke-width="1.5"/>
<path opacity="0.793103" d="M101.561 305.259C99.9789 303.818 98.9684 301.634 98.5824 298.656C98.1961 295.668 98.4505 291.948 99.3456 287.561C101.136 278.788 105.445 267.565 111.936 254.639C124.908 228.802 146.484 196.372 173.599 163.492C200.714 130.613 228.191 103.559 250.678 86.3969C261.928 77.8097 271.885 71.7347 279.892 68.6271C283.896 67.073 287.362 66.2816 290.23 66.2596C293.09 66.2378 295.289 66.9805 296.87 68.422C298.452 69.8644 299.462 72.0472 299.849 75.0267C300.235 78.0138 299.981 81.7344 299.085 86.1212C297.295 94.8946 292.985 106.117 286.495 119.043C273.523 144.88 251.947 177.31 224.832 210.19C197.717 243.07 170.24 270.123 147.753 287.286C136.503 295.872 126.546 301.948 118.539 305.055C114.535 306.609 111.069 307.401 108.201 307.422C105.342 307.443 103.142 306.701 101.561 305.259Z" stroke="#DEE2E5" stroke-width="1.5"/>
<path opacity="0.827586" d="M92.3396 297.172C90.8795 295.587 90.0503 293.314 89.9118 290.306C89.7719 287.288 90.3325 283.599 91.5893 279.303C94.1005 270.712 99.3293 259.909 106.875 247.608C121.96 223.02 146.178 192.646 175.964 162.334C205.75 132.023 235.415 107.561 259.285 92.5089C271.227 84.9774 281.668 79.8341 289.919 77.4723C294.045 76.2915 297.571 75.8216 300.437 76.0647C303.292 76.307 305.427 77.2511 306.887 78.8366C308.348 80.4221 309.176 82.6937 309.315 85.7028C309.455 88.7204 308.894 92.4086 307.638 96.7051C305.126 105.296 299.898 116.099 292.351 128.4C277.267 152.988 253.049 183.363 223.263 213.674C193.477 243.985 163.812 268.447 139.942 283.5C128 291.031 117.559 296.174 109.308 298.536C105.182 299.717 101.656 300.187 98.7904 299.944C95.9346 299.701 93.7996 298.757 92.3396 297.172Z" stroke="#DEE2E5" stroke-width="1.5"/>
<path opacity="0.862069" d="M83.9081 288.197C82.5798 286.48 81.9402 284.134 82.0488 281.118C82.1572 278.093 83.0208 274.463 84.6292 270.291C87.8436 261.948 93.9537 251.65 102.501 240.07C119.587 216.924 146.27 188.85 178.507 161.353C210.743 133.858 242.38 112.189 267.453 99.3754C279.997 92.9652 290.848 88.7983 299.281 87.2049C303.498 86.4096 307.059 86.2666 309.899 86.7747C312.732 87.2828 314.785 88.4222 316.114 90.1391C317.441 91.8578 318.082 94.2033 317.973 97.2185C317.863 100.244 317 103.874 315.393 108.046C312.177 116.388 306.068 126.687 297.521 138.266C280.435 161.412 253.752 189.487 221.515 216.983C189.278 244.479 157.641 266.148 132.569 278.961C120.025 285.371 109.174 289.538 100.741 291.131C96.524 291.927 92.9632 292.07 90.1224 291.561C87.2905 291.054 85.2364 289.914 83.9081 288.197Z" stroke="#DEE2E5" stroke-width="1.5"/>
<path opacity="0.896552" d="M76.3325 278.392C75.1472 276.554 74.7006 274.152 75.0554 271.152C75.4128 268.143 76.5731 264.599 78.52 260.584C82.4154 252.555 89.3616 242.842 98.8479 232.078C117.81 210.561 146.762 185.016 181.213 160.566C215.664 136.115 249.038 117.426 275.129 106.968C288.183 101.734 299.362 98.5839 307.915 97.7775C312.192 97.3747 315.759 97.5637 318.556 98.3354C321.342 99.1053 323.3 100.434 324.486 102.272C325.671 104.11 326.119 106.511 325.763 109.512C325.405 112.521 324.246 116.065 322.298 120.08C318.403 128.109 311.456 137.821 301.97 148.586C283.009 170.102 254.057 195.647 219.606 220.098C185.156 244.548 151.782 263.237 125.689 273.696C112.635 278.929 101.457 282.08 92.9035 282.886C88.6259 283.289 85.0587 283.1 82.2639 282.328C79.4757 281.559 77.5179 280.23 76.3325 278.392Z" stroke="#DEE2E5" stroke-width="1.5"/>
<path opacity="0.931035" d="M69.6739 267.822C68.6394 265.877 68.3891 263.439 68.9895 260.477C69.5926 257.506 71.0407 254.077 73.3139 250.252C77.8607 242.601 85.5937 233.554 95.9494 223.694C116.648 203.986 147.656 181.188 184.066 159.996C220.476 138.804 255.34 123.261 282.257 115.255C295.724 111.249 307.147 109.146 315.757 109.14C320.062 109.136 323.61 109.657 326.339 110.688C329.06 111.717 330.908 113.225 331.941 115.171C332.974 117.116 333.226 119.554 332.624 122.516C332.022 125.486 330.574 128.915 328.3 132.741C323.753 140.392 316.021 149.438 305.665 159.298C284.966 179.007 253.959 201.804 217.549 222.996C181.139 244.189 146.275 259.731 119.357 267.738C105.89 271.744 94.468 273.846 85.8582 273.853C81.5526 273.856 78.0052 273.335 75.2755 272.304C72.554 271.276 70.7072 269.767 69.6739 267.822Z" stroke="#DEE2E5" stroke-width="1.5"/>
<path opacity="0.965517" d="M64.0032 256.571C63.1307 254.535 63.0797 252.079 63.9214 249.181C64.7658 246.274 66.4926 242.989 69.0757 239.385C74.2421 232.177 82.7037 223.874 93.8525 215.004C116.135 197.275 148.965 177.425 187.06 159.68C225.156 141.934 261.243 129.68 288.781 124.202C302.558 121.461 314.138 120.429 322.736 121.224C327.036 121.622 330.536 122.473 333.179 123.755C335.812 125.035 337.534 126.712 338.406 128.748C339.28 130.785 339.331 133.24 338.49 136.138C337.645 139.045 335.918 142.33 333.334 145.935C328.167 153.143 319.706 161.445 308.558 170.315C286.276 188.044 253.446 207.894 215.35 225.64C177.255 243.385 141.168 255.639 113.63 261.117C99.8528 263.858 88.273 264.89 79.6745 264.095C75.3746 263.697 71.8734 262.847 69.2322 261.564C66.598 260.285 64.877 258.607 64.0032 256.571Z" stroke="#DEE2E5" stroke-width="1.5"/>
<path d="M59.4211 244.775C58.7168 242.666 58.8686 240.216 59.9474 237.408C61.0292 234.591 63.0216 231.479 65.8959 228.129C71.6446 221.428 80.7728 213.942 92.6272 206.14C116.323 190.545 150.719 173.815 190.196 159.668C229.674 145.52 266.698 136.656 294.631 133.749C308.605 132.295 320.246 132.338 328.763 133.926C333.022 134.72 336.446 135.891 338.977 137.413C341.5 138.931 343.08 140.76 343.784 142.869C344.489 144.978 344.338 147.428 343.259 150.237C342.177 153.053 340.184 156.166 337.31 159.516C331.561 166.216 322.434 173.702 310.58 181.504C286.884 197.099 252.487 213.829 213.009 227.977C173.532 242.124 136.509 250.988 108.576 253.895C94.6015 255.35 82.9589 255.307 74.4422 253.719C70.1837 252.925 66.761 251.753 64.2301 250.231C61.7066 248.714 60.1254 246.884 59.4211 244.775Z" stroke="#DEE2E5" stroke-width="1.5"/>
</g>
</g>
<defs>
<clipPath id="clip0_407_37">
<rect width="360" height="360" fill="white"/>
</clipPath>
</defs>
</svg>
