<svg xmlns="http://www.w3.org/2000/svg" xmlns:xlink="http://www.w3.org/1999/xlink" viewBox="0,0,256,256" width="24px" height="24px" fill-rule="nonzero"><g fill="#ffffff" fill-rule="nonzero" stroke="none" stroke-width="1" stroke-linecap="butt" stroke-linejoin="miter" stroke-miterlimit="10" stroke-dasharray="" stroke-dashoffset="0" font-family="none" font-weight="none" font-size="none" text-anchor="none" style="mix-blend-mode: normal"><g transform="scale(10.66667,10.66667)"><path d="M3.5,0c-1.379,0 -2.5,1.122 -2.5,2.5c0,1.378 1.121,2.5 2.5,2.5c0.44717,0 0.86112,-0.12755 1.22461,-0.33398l7.32227,5.11133c-1.25716,1.18601 -2.04687,2.86213 -2.04687,4.72266c0,1.52555 0.53273,2.92699 1.41602,4.03711l-1.65625,1.61523c-0.23465,-0.09685 -0.49052,-0.15234 -0.75977,-0.15234c-1.103,0 -2,0.897 -2,2c0,1.103 0.897,2 2,2c1.103,0 2,-0.897 2,-2c0,-0.28354 -0.06116,-0.5523 -0.16797,-0.79687l1.64649,-1.60742c1.10772,0.876 2.50292,1.4043 4.02148,1.4043c3.584,0 6.5,-2.916 6.5,-6.5c0,-3.33011 -2.51831,-6.07974 -5.75,-6.45312v-2.17383c1.01124,-0.32069 1.75,-1.25765 1.75,-2.37305c0,-1.378 -1.121,-2.5 -2.5,-2.5c-1.379,0 -2.5,1.122 -2.5,2.5c0,1.1154 0.73876,2.05236 1.75,2.37305v2.17383c-0.87456,0.10105 -1.69548,0.37516 -2.42969,0.78906l-7.5625,-5.2793c0.15127,-0.32193 0.24219,-0.67814 0.24219,-1.05664c0,-1.378 -1.121,-2.5 -2.5,-2.5zM3.5,1.5c0.552,0 1,0.449 1,1c0,0.551 -0.448,1 -1,1c-0.552,0 -1,-0.449 -1,-1c0,-0.551 0.448,-1 1,-1zM16.5,2.5c0.552,0 1,0.449 1,1c0,0.551 -0.448,1 -1,1c-0.552,0 -1,-0.449 -1,-1c0,-0.551 0.448,-1 1,-1zM16.5,9.5c2.757,0 5,2.243 5,5c0,2.757 -2.243,5 -5,5c-2.757,0 -5,-2.243 -5,-5c0,-2.757 2.243,-5 5,-5zM16.5,11c-1.93,0 -3.5,1.57 -3.5,3.5c0,1.93 1.57,3.5 3.5,3.5c1.93,0 3.5,-1.57 3.5,-3.5c0,-1.93 -1.57,-3.5 -3.5,-3.5zM16.5,12.5c1.103,0 2,0.897 2,2c0,1.103 -0.897,2 -2,2c-1.103,0 -2,-0.897 -2,-2c0,-1.103 0.897,-2 2,-2zM9,21.5c0.275,0 0.5,0.224 0.5,0.5c0,0.276 -0.225,0.5 -0.5,0.5c-0.275,0 -0.5,-0.224 -0.5,-0.5c0,-0.276 0.225,-0.5 0.5,-0.5z"></path></g></g></svg>