<svg xmlns="http://www.w3.org/2000/svg" xmlns:xlink="http://www.w3.org/1999/xlink" viewBox="0,0,256,256" width="50px" height="50px" fill-rule="nonzero"><g fill="#ffffff" fill-rule="nonzero" stroke="none" stroke-width="1" stroke-linecap="butt" stroke-linejoin="miter" stroke-miterlimit="10" stroke-dasharray="" stroke-dashoffset="0" font-family="none" font-weight="none" font-size="none" text-anchor="none" style="mix-blend-mode: normal"><g transform="scale(5.12,5.12)"><path d="M15.26367,2.07813c-5.9279,2.48569 -10.69985,7.25764 -13.18555,13.18555l1.84375,0.77344c2.28031,-5.4381 6.67714,-9.83493 12.11523,-12.11523zM25,4c-11.579,0 -21,9.421 -21,21c0,11.579 9.421,21 21,21c11.579,0 21,-9.421 21,-21c0,-11.579 -9.421,-21 -21,-21zM24,10h2v13.27734c0.595,0.346 1,0.98366 1,1.72266c0,0.178 -0.03122,0.34672 -0.07422,0.51172l5.78125,5.78125l-1.41406,1.41406l-5.78125,-5.78125c-0.165,0.043 -0.33372,0.07422 -0.51172,0.07422c-1.105,0 -2,-0.895 -2,-2c0,-0.738 0.405,-1.37566 1,-1.72266zM46.08398,33.95117c-2.37674,5.45738 -6.68655,9.84813 -12.12109,12.12695l0.77344,1.84375c5.93145,-2.48718 10.60643,-7.26326 13.17969,-13.17187z"></path></g></g></svg>