<svg xmlns="http://www.w3.org/2000/svg" xmlns:xlink="http://www.w3.org/1999/xlink" viewBox="0,0,256,256" width="50px" height="50px" fill-rule="nonzero"><g fill="#ffffff" fill-rule="nonzero" stroke="none" stroke-width="1" stroke-linecap="butt" stroke-linejoin="miter" stroke-miterlimit="10" stroke-dasharray="" stroke-dashoffset="0" font-family="none" font-weight="none" font-size="none" text-anchor="none" style="mix-blend-mode: normal"><g transform="scale(5.12,5.12)"><path d="M29.8125,7c-0.55078,0.05078 -0.95703,0.54297 -0.90625,1.09375c0.05078,0.55078 0.54297,0.95703 1.09375,0.90625h7.5625l-12.5625,12.5625l-13.28125,-13.28125c-0.39844,-0.39844 -1.03906,-0.39844 -1.4375,0c-0.39844,0.39844 -0.39844,1.03906 0,1.4375l14,14c0.1875,0.19531 0.44922,0.30469 0.71875,0.30469c0.26953,0 0.53125,-0.10937 0.71875,-0.30469l13.28125,-13.28125v7.5625c-0.00391,0.35938 0.18359,0.69531 0.49609,0.87891c0.3125,0.17969 0.69531,0.17969 1.00781,0c0.3125,-0.18359 0.5,-0.51953 0.49609,-0.87891v-10c0,-0.55078 -0.44922,-1 -1,-1h-10c-0.03125,0 -0.0625,0 -0.09375,0c-0.03125,0 -0.0625,0 -0.09375,0zM25,26c-7.48828,0 -17.37891,0.97266 -21.96875,5.5625c-1.67969,1.52344 -0.73828,8.04297 -0.625,8.78125c0.28906,1.89063 1.86719,2.83594 2.96875,2.65625c0.63672,-0.10547 8.08984,-1.69531 9.03125,-1.90625c1.22266,-0.24219 1.82031,-1.74609 2.03125,-2.375c0.26563,-0.79687 0.91406,-4.10547 1.15625,-5.375c0.80469,-0.40234 3.12891,-1.34375 7.40625,-1.34375c4.31641,0 6.69531,1.01563 7.5,1.4375c0.23438,1.21875 0.85156,4.34375 1.125,5.21875c0.30859,1.33203 1.12109,2.25781 2.03125,2.40625c0.76563,0.19141 8.33984,1.83203 9.09375,1.9375c0.09766,0.01563 0.17578,0 0.28125,0c1.08984,0 2.39063,-0.92969 2.65625,-2.65625c0.11328,-0.73828 1.05469,-7.25391 -0.625,-8.78125l-0.0625,-0.0625c-3.96875,-3.64062 -11.37891,-5.5 -22,-5.5z"></path></g></g></svg>