<svg xmlns="http://www.w3.org/2000/svg" xmlns:xlink="http://www.w3.org/1999/xlink" viewBox="0,0,256,256" width="50px" height="50px" fill-rule="nonzero"><g fill="#ffffff" fill-rule="nonzero" stroke="none" stroke-width="1" stroke-linecap="butt" stroke-linejoin="miter" stroke-miterlimit="10" stroke-dasharray="" stroke-dashoffset="0" font-family="none" font-weight="none" font-size="none" text-anchor="none" style="mix-blend-mode: normal"><g transform="scale(5.12,5.12)"><path d="M39.90625,2c-2.34375,0 -3.48828,3.55859 -2.4375,9.46875c0.42578,-0.12109 0.87891,-0.22266 1.34375,-0.28125c-0.9375,-7.09766 2.64844,-4.03906 3.1875,-7.09375c0.19922,-1.19922 -0.79297,-2.09375 -2.09375,-2.09375zM47.5625,4.03125c-1.84375,0.17188 -3.80859,2.6875 -5.28125,7.3125c0.48438,0.10547 0.95313,0.23828 1.40625,0.40625c2.41406,-6.59375 4.12109,-2.15234 6,-4.65625c0.69922,-0.89844 0.22656,-2.17969 -0.875,-2.78125c-0.40625,-0.21094 -0.82422,-0.32031 -1.25,-0.28125zM40,13.09375c-4.80859,0 -7,4.19141 -7,8.09375c0,0.65234 -0.01953,1.41016 -0.0625,2.1875c0.77344,1.92969 1.14453,3.98828 1.0625,6.09375c0,0.01172 0,0.01953 0,0.03125c0,0.00781 0,0.02344 0,0.03125c0,0.01563 0,0.01563 0,0.03125v0.15625c-0.34375,3.53906 -2.48047,6.20313 -4.21875,7.8125c-0.24219,0.22656 -0.51953,0.42578 -0.78125,0.625c-0.10937,0.08594 -0.23047,0.16797 -0.34375,0.25c-0.00781,0.00781 0.00781,0.02344 0,0.03125c-0.14062,0.09766 -0.29297,0.19141 -0.4375,0.28125c-0.15234,0.09766 -0.3125,0.19141 -0.46875,0.28125c-0.55469,0.3125 -1.14062,0.57031 -1.75,0.78125c-0.03516,0.01172 -0.05859,0.01953 -0.09375,0.03125c-0.73828,0.24609 -1.52344,0.42969 -2.34375,0.53125c-0.12891,0.01563 -0.27734,0.01953 -0.40625,0.03125c-0.07812,0.00781 -0.14062,0.02734 -0.21875,0.03125l-2.0625,0.15625v-0.125c-0.64062,0.51563 -1.21875,0.87109 -1.625,1.0625c-0.1875,0.09375 -0.41016,0.17188 -0.625,0.25c-0.10937,0.04297 -0.19922,0.08594 -0.3125,0.125c-1.11328,0.39453 -2.04687,0.49219 -2.09375,0.5c-0.02344,0.00391 -0.03906,0.02734 -0.0625,0.03125c-0.00781,0.00391 -0.02344,0 -0.03125,0c-0.26562,0.04688 -0.53906,0.08594 -0.8125,0.125c-0.03906,0.00781 -0.08594,0.02344 -0.125,0.03125c-1.35547,0.19141 -2.79687,0.31641 -4.1875,0.40625h-0.1875c-0.07422,0 -0.20703,0.00391 -0.34375,0c-0.05859,0 -0.12109,-0.02734 -0.1875,-0.03125c-0.17187,-0.00781 -0.36719,-0.01953 -0.59375,-0.03125c-0.01953,-0.00391 -0.07422,0.00391 -0.09375,0c-0.46875,-0.03125 -1.03906,-0.06641 -1.6875,-0.15625l-0.0625,-0.03125c-0.37891,-0.05469 -0.76562,-0.10937 -1.1875,-0.1875l-0.5625,-0.09375v-0.03125c-0.99609,-0.21875 -2.08203,-0.51172 -3.15625,-0.9375c-1.99609,0.26172 -2.9375,0.75 -2.9375,1.84375c0,4.56641 20.8125,4.6875 23.1875,4.6875c20.125,0 20.78906,-14.89062 20.8125,-21.28125c2.38281,-1.33984 4,-3.88281 4,-6.40625c0,-3.96875 -3.58984,-7.21875 -8,-7.21875zM17,15c-4.19531,0 -8.24609,1.67188 -11.09375,4.59375c-2.62109,2.69141 -4.00391,6.21484 -3.90625,9.9375c0.16406,4.32422 2.02734,8.29688 5.03125,11.03125c2.14844,0.40625 3.78516,0.40625 3.8125,0.40625c2.64063,-0.16797 5.92578,-0.46484 7.5,-1.25c1.22266,-0.57422 4.65625,-3.20312 4.65625,-7.625c0,-5.61719 -4.19141,-7.09375 -6.40625,-7.09375c-2.48828,0 -3.59375,1.50781 -3.59375,3c0,1.28516 0.75781,3.1875 2.8125,3.1875c0.55078,0 1,0.44922 1,1c0,0.55078 -0.44922,1 -1,1c-3.11719,0 -4.8125,-2.66797 -4.8125,-5.1875c0,-2.48437 1.91797,-5 5.59375,-5c3.375,0 8.40625,2.41797 8.40625,9.09375c0,4.63281 -1.03125,5.1875 -2.21875,6.25c0,0.02344 0,0.03906 0,0.0625c2.23047,-0.17187 4.12109,-0.95312 5.625,-2.34375c1.80859,-1.67578 3.34375,-3.94922 3.59375,-6.5625c0.375,-7.90625 -6.58984,-14.5 -15,-14.5z"></path></g></g></svg>