<svg xmlns="http://www.w3.org/2000/svg" xmlns:xlink="http://www.w3.org/1999/xlink" viewBox="0,0,256,256" width="24px" height="24px" fill-rule="nonzero"><g fill="#ffffff" fill-rule="nonzero" stroke="none" stroke-width="1" stroke-linecap="butt" stroke-linejoin="miter" stroke-miterlimit="10" stroke-dasharray="" stroke-dashoffset="0" font-family="none" font-weight="none" font-size="none" text-anchor="none" style="mix-blend-mode: normal"><g transform="scale(10.66667,10.66667)"><path d="M11.03516,0.00781c-4.51426,0.33324 -12.73156,10.28653 -9.58594,12.95703l0.78711,0.66797c-0.155,0.403 -0.24414,0.86747 -0.24414,1.35547c0,0.15 0.00939,0.29736 0.02539,0.44336c0.086,0.838 0.51589,1.63976 1.21289,2.25976c0.662,0.59 1.53486,0.96389 2.38086,0.96289c1.399,3.24 4.5938,5.22784 8.3418,5.33984c4.021,0.12 7.3975,-1.77564 8.8125,-5.18164c0.093,-0.24 0.48438,-1.31563 0.48438,-2.26562c0,-0.956 -0.53691,-1.35352 -0.87891,-1.35352c-0.01,-0.037 -0.07692,-0.28594 -0.16992,-0.58594l-0.18945,-0.50977c0.374,-0.563 0.38103,-1.06561 0.33203,-1.34961c-0.054,-0.353 -0.19914,-0.65484 -0.49414,-0.96484c-0.294,-0.312 -0.89714,-0.62919 -1.74414,-0.86719l-0.44531,-0.12305c-0.002,-0.018 -0.02297,-1.05405 -0.04297,-1.49805c-0.013,-0.32 -0.03936,-0.82145 -0.19336,-1.31445c-0.184,-0.669 -0.5062,-1.25295 -0.9082,-1.62695c1.106,-1.152 1.79692,-2.42272 1.79492,-3.51172c-0.003,-2.095 -2.5618,-2.73002 -5.7168,-1.41602l-0.66797,0.28516c-0.312,-0.308 -0.71233,-0.7027 -1.11133,-1.0957l-0.11523,-0.11133c-0.44987,-0.39425 -1.01917,-0.5437 -1.66406,-0.49609zM2.01758,15.43164l-0.00195,-0.00586l0.00195,0.01758zM11.44336,0.875c0.12928,0.00632 0.25155,0.02577 0.36524,0.05664c0.295,0.084 1.27344,1.22266 1.27344,1.22266c0,0 -1.81791,1.01278 -3.50391,2.42578c-2.271,1.757 -3.98567,4.31198 -5.01367,7.08398c-0.80623,0.15735 -1.51846,0.61744 -1.95312,1.25195c-0.259,-0.218 -0.74213,-0.64069 -0.82813,-0.80469c-0.695,-1.325 0.75648,-3.90047 1.77148,-5.35547c2.35219,-3.37125 5.94946,-5.97569 7.88867,-5.88086zM14.61523,4.14648c0.04,-0.003 0.06034,0.04922 0.02734,0.07422c-0.154,0.119 -0.29216,0.25711 -0.41016,0.41211c-0.005,0.007 -0.00781,0.01444 -0.00781,0.02344c0,0.022 0.01706,0.04002 0.03906,0.04102c0.655,0.005 1.57769,0.23422 2.17969,0.57422c0.04,0.023 0.0128,0.1018 -0.0332,0.0918c-0.911,-0.21 -2.40217,-0.37023 -3.95117,0.00977c-1.383,0.339 -2.43703,0.86278 -3.20703,1.42578c-0.039,0.029 -0.08469,-0.02159 -0.05469,-0.05859c0.892,-1.036 1.99066,-1.93641 2.97266,-2.44141c0.034,-0.017 0.06878,0.01973 0.05078,0.05273c-0.079,0.142 -0.22839,0.44773 -0.27539,0.67773c-0.001,0.003 -0.00195,0.00481 -0.00195,0.00781c0,0.022 0.01902,0.04102 0.04102,0.04102c0.008,0 0.01548,-0.00281 0.02148,-0.00781c0.612,-0.419 1.67538,-0.86683 2.60938,-0.92383zM17.67773,7.35156c0.17,0.007 0.32308,0.05948 0.45508,0.14648c0.53,0.355 0.60481,1.21375 0.63281,1.84375c0.016,0.36 0.05922,1.22852 0.07422,1.47852c0.034,0.57 0.18238,0.65 0.48438,0.75c0.169,0.057 0.32855,0.09906 0.56055,0.16406c0.703,0.199 1.11981,0.3992 1.38281,0.6582c0.157,0.161 0.22895,0.33405 0.25195,0.49805c0.084,0.608 -0.46764,1.35902 -1.93164,2.04102c-1.6,0.746 -3.54086,0.93516 -4.88086,0.78516l-0.46875,-0.05469c-1.072,-0.145 -1.68302,1.24717 -1.04101,2.20117c0.415,0.615 1.54483,1.01563 2.67383,1.01563c2.592,0 4.58322,-1.11126 5.32422,-2.07227l0.06055,-0.08398c0.036,-0.055 0.00694,-0.08569 -0.03906,-0.05469c-0.605,0.416 -3.29292,2.06831 -6.16992,1.57031c0,0 -0.34897,-0.05664 -0.66797,-0.18164c-0.253,-0.099 -0.78366,-0.34362 -0.84766,-0.89062c2.32,0.721 3.78125,0.03906 3.78125,0.03906c0.025,-0.012 0.04297,-0.03545 0.04297,-0.06445v-0.00586c-0.003,-0.034 -0.03336,-0.06055 -0.06836,-0.06055h-0.00781c0,0 -1.90222,0.28309 -3.69922,-0.37891c0.195,-0.639 0.71691,-0.40775 1.50391,-0.34375c0.194,0.012 0.42139,0.01758 0.65039,0.01758c1.04,0 2.04309,-0.14892 2.99609,-0.41992c0.811,-0.237 1.86931,-0.69661 2.69531,-1.34961c0.279,0.618 0.37891,1.29883 0.37891,1.29883c0,0 0.21644,-0.03974 0.39844,0.07226c0.17,0.106 0.29498,0.32553 0.20898,0.89453c-0.174,1.063 -0.62291,1.9267 -1.37891,2.7207c-0.464,0.503 -1.013,0.91952 -1.625,1.22852l-0.0332,0.01563c-0.303,0.165 -0.66025,0.31931 -1.03125,0.44531l-0.05078,0.01367c-2.849,0.935 -5.76508,-0.09183 -6.70508,-2.29883c-0.068,-0.144 -0.13359,-0.31905 -0.18359,-0.49805l-0.00586,-0.02344c-0.4,-1.455 -0.06009,-3.19983 1.00391,-4.29883c0.065,-0.07 0.13281,-0.15481 0.13281,-0.25781c0,-0.087 -0.05456,-0.17719 -0.10156,-0.24219c-0.372,-0.542 -1.66234,-1.46591 -1.40234,-3.25391c0.185,-1.285 1.3047,-2.18877 2.3457,-2.13477l0.26367,0.01563c0.452,0.027 0.84575,0.08361 1.21875,0.09961c0.622,0.027 1.18075,-0.06414 1.84375,-0.61914c0.223,-0.187 0.40208,-0.34939 0.70508,-0.40039c0.032,-0.005 0.11153,-0.03339 0.26953,-0.02539zM18.73047,15.94922c-0.006,0.002 -0.01258,0.00486 -0.01758,0.00586l0.07617,-0.01758c-0.019,0.006 -0.03959,0.00572 -0.05859,0.01172zM17.58398,9.53516c-0.332,0.054 -0.34461,0.46806 -0.22461,1.03906c0.067,0.321 0.18636,0.59758 0.31836,0.76758c0.164,-0.021 0.33014,-0.021 0.49414,0c0.089,-0.205 0.10344,-0.55936 0.02344,-0.94336c-0.12,-0.571 -0.27933,-0.91728 -0.61133,-0.86328zM13.98047,11.07813c-0.36906,0 -0.71262,0.1241 -0.99024,0.32617l-0.00391,0.00195c-0.15769,0.11679 -0.30306,0.27772 -0.2832,0.375c0.008,0.032 0.02994,0.05645 0.08594,0.06445c0.132,0.015 0.59019,-0.217 1.11719,-0.25c0.373,-0.023 0.68097,0.09422 0.91797,0.19922v-0.00195c0.238,0.105 0.38441,0.17328 0.44141,0.11328c0.037,-0.038 0.0267,-0.11013 -0.0293,-0.20312c-0.118,-0.193 -0.35923,-0.38709 -0.61523,-0.49609c-0.189,-0.081 -0.40963,-0.12891 -0.64062,-0.12891zM18.06445,11.88672c-0.171,-0.003 -0.31341,0.18588 -0.31641,0.42188c-0.004,0.235 0.13273,0.42669 0.30273,0.42969c0.17,0.003 0.31241,-0.18492 0.31641,-0.41992c0.003,-0.235 -0.13274,-0.42764 -0.30273,-0.43164zM14.34766,12.06641c-0.309,0.05 -0.48084,0.15305 -0.58984,0.24805c-0.094,0.082 -0.15234,0.17233 -0.15234,0.23633l0.02539,0.05664l0.05078,0.02148c0.07,0 0.22656,-0.06445 0.22656,-0.06445c0.206,-0.081 0.44531,-0.12695 0.69531,-0.12695c0.107,0 0.21245,0.00839 0.31445,0.02539c0.14459,0.01682 0.21811,0.02484 0.25,-0.02734c0.01,-0.015 0.02319,-0.04861 -0.00781,-0.09961c-0.072,-0.118 -0.38455,-0.31858 -0.81055,-0.26758zM16.67773,12.46484c-0.0935,0.01638 -0.16953,0.06413 -0.20703,0.14063c-0.076,0.155 0.03414,0.3638 0.24414,0.4668c0.209,0.104 0.44063,0.06316 0.51563,-0.08984c0.076,-0.155 -0.03414,-0.3638 -0.24414,-0.4668c-0.1045,-0.052 -0.21509,-0.06716 -0.30859,-0.05078zM5.21094,12.48242c0.038,0 0.07427,0.0021 0.11133,0.00391c0.727,0.04 1.79702,0.60041 2.04102,2.19141c0.216,1.408 -0.12841,2.84141 -1.44141,3.06641c-0.098,0.018 -0.20922,0.02734 -0.32422,0.02734c-0.01635,0 -0.03337,0.00089 -0.04883,0h-0.00195c-1.21347,-0.0341 -2.52437,-1.13223 -2.6543,-2.43555c-0.144,-1.44 0.58877,-2.54855 1.88477,-2.81055c0.13,-0.027 0.28059,-0.04297 0.43359,-0.04297zM5.0957,13.41016c-0.329,0 -0.62598,0.14124 -0.83398,0.36524h-0.00195c-0.378,0.418 -0.43728,0.98941 -0.36328,1.19141c0.027,0.073 0.06961,0.09366 0.09961,0.09766c0.065,0.009 0.15975,-0.03917 0.21875,-0.20117l0.01758,-0.05078c0.026,-0.085 0.07625,-0.24409 0.15625,-0.37109c0.125,-0.189 0.33522,-0.31055 0.57422,-0.31055c0.139,0 0.267,0.04033 0.375,0.11133c0.264,0.175 0.36591,0.49955 0.25391,0.81055c-0.059,0.161 -0.15477,0.4687 -0.13477,0.7207c0.043,0.512 0.35672,0.71723 0.63672,0.74023c0.273,0.01 0.46372,-0.14481 0.51172,-0.25781c0.03,-0.065 0.00523,-0.107 -0.00977,-0.125c-0.04213,-0.0511 -0.11141,-0.03732 -0.17773,-0.02148c-0.048,0.013 -0.10316,0.02048 -0.16016,0.02148h-0.00781c-0.117,0 -0.2202,-0.05748 -0.2832,-0.14648v-0.00195c-0.078,-0.12 -0.07328,-0.29891 0.01172,-0.50391l0.03906,-0.0918c0.138,-0.308 0.36833,-0.82441 0.11133,-1.31641c-0.193,-0.37 -0.51062,-0.60239 -0.89062,-0.65039c-0.044,-0.006 -0.09258,-0.00977 -0.14258,-0.00977z"></path></g></g></svg>