<svg version="1.0" xmlns="http://www.w3.org/2000/svg" width="300.000000pt" height="42.000000pt" viewBox="0 0 300.000000 42.000000" preserveAspectRatio="xMidYMid meet">
<g transform="translate(0.000000,42.000000) scale(0.100000,-0.100000)" fill="#FFFFFF" stroke="none">
<path d="M67 208 l2 -163 31 -3 30 -3 0 116 0 117 76 -116 c68 -104 79 -116 105 -116 l29 0 0 165 0 165 -36 0 -37 0 6 -100 c3 -55 4 -100 2 -100 -2 0 -33 45 -69 100 -64 97 -67 100 -103 100 l-38 0 2 -162z"/>
<path d="M406 208 l1 -163 32 -3 31 -3 0 165 0 166 -32 0 -33 0 1 -162z"/>
<path d="M520 340 c0 -30 1 -30 55 -30 l55 0 0 -135 0 -135 35 0 35 0 0 135 0 135 55 0 c54 0 55 0 55 30 l0 30 -145 0 -145 0 0 -30z"/>
<path d="M850 205 l0 -165 35 0 35 0 0 73 0 72 72 -2 73 -2 -4 -70 -3 -71 36 0 36 0 0 165 0 165 -36 0 -36 0 4 -65 4 -65 -73 0 -73 0 0 65 0 65 -35 0 -35 0 0 -165z"/>
<path d="M1200 204 l0 -165 31 3 30 3 2 163 2 162 -32 0 -33 0 0 -166z"/>
<path d="M1400 352 c-54 -30 -82 -85 -77 -155 5 -90 59 -147 144 -154 61 -5 119 26 148 79 22 42 22 43 -22 51 -29 6 -34 3 -39 -19 -13 -52 -80 -70 -127 -34 -33 26 -44 79 -28 132 22 72 114 85 147 20 6 -12 13 -25 16 -27 7 -8 68 16 68 26 0 6 -17 28 -39 51 -35 38 -43 42 -97 45 -45 3 -68 0 -94 -15z"/>
<path d="M1680 205 l0 -165 35 0 35 0 0 73 0 72 70 0 70 0 0 -72 0 -73 35 0 35 0 0 165 0 165 -35 0 -35 0 0 -65 0 -65 -70 0 -70 0 0 65 0 65 -35 0 -35 0 0 -165z"/>
<path d="M2100 352 c-66 -33 -101 -116 -80 -193 31 -113 168 -154 256 -77 43 38 56 68 55 132 0 118 -124 192 -231 138z m135 -62 c19 -21 30 -87 21 -124 -16 -65 -95 -88 -141 -41 -51 50 -25 178 38 187 35 5 64 -3 82 -22z"/>
<path d="M2370 340 c0 -30 1 -30 55 -30 l55 0 0 -135 0 -135 36 0 36 0 -4 135 -3 135 58 0 c57 0 57 0 57 30 l0 30 -145 0 -145 0 0 -30z"/>
<path d="M2700 208 l0 -163 125 0 125 0 0 30 0 30 -90 -3 -90 -3 0 40 0 41 70 0 70 0 0 30 0 30 -70 0 -70 0 0 35 0 35 90 0 90 0 0 30 0 30 -125 0 -125 0 0 -162z"/>
</g>
</svg>