<svg xmlns="http://www.w3.org/2000/svg" xmlns:xlink="http://www.w3.org/1999/xlink" viewBox="0,0,256,256" width="30px" height="30px" fill-rule="nonzero"><g fill="#ffffff" fill-rule="nonzero" stroke="none" stroke-width="1" stroke-linecap="butt" stroke-linejoin="miter" stroke-miterlimit="10" stroke-dasharray="" stroke-dashoffset="0" font-family="none" font-weight="none" font-size="none" text-anchor="none" style="mix-blend-mode: normal"><g transform="scale(8.53333,8.53333)"><path d="M7.06055,3l-0.16992,0.78711c-1.18896,5.46083 -3.26515,14.98576 -3.77148,17.33594l-0.25977,1.20898h6.19141l-0.74805,3.45703l-0.26172,1.21094h6.22852l1.3418,-6.18164l0.00391,-0.02734c0.02091,-0.13307 0.20349,-0.47852 0.63672,-0.47852h2.78516c3.9275,0 6.99635,-2.3627 7.78906,-6.06836c0.38072,-1.78231 0.13237,-3.44928 -0.85742,-4.68164l-0.00195,-0.00195c-0.78519,-0.97712 -1.94543,-1.59787 -3.21484,-1.81445h-0.00586l-0.00586,-0.00195c0,0 -0.64353,-0.02149 -0.94922,-0.04297v-0.02148l-0.00195,-0.01758c-0.09305,-1.54766 -0.83526,-2.78451 -1.83594,-3.55273c-1.00067,-0.76823 -2.2217,-1.10937 -3.38672,-1.10937zM8.67188,5h7.89453c0.76198,0 1.57689,0.24154 2.16797,0.69531c0.56621,0.43468 0.95331,1.03554 1.03906,1.97266h-7c-0.316,0 -0.56772,0.21572 -0.63672,0.51172h-0.00195l-1.0625,4.85352l-0.00977,-0.00195l-1.58008,7.30078h-4.14453c0.62947,-2.90908 2.21518,-10.19393 3.33398,-15.33203zM21.61328,9.67578c0.50837,0.01895 0.80681,0.04461 0.80859,0.04492c0.8363,0.14446 1.55294,0.55379 1.98633,1.09375c0.56084,0.69744 0.75801,1.62101 0.46094,3.01172h0.00195c-0.62133,2.90434 -2.64548,4.48633 -5.83398,4.48633h-2.78516c-1.42677,0 -2.43619,1.04104 -2.61328,2.16797l-0.98242,4.51953h-2.13672l0.15625,-0.72266l0.85352,-3.94531l1.00976,-4.66992h1.28711c3.7855,0 6.90472,-2.04967 7.78711,-5.98633z"></path></g></g></svg>