<svg xmlns="http://www.w3.org/2000/svg" xmlns:xlink="http://www.w3.org/1999/xlink" viewBox="0,0,256,256" width="48px" height="48px" fill-rule="nonzero"><g fill="#ffffff" fill-rule="nonzero" stroke="none" stroke-width="1" stroke-linecap="butt" stroke-linejoin="miter" stroke-miterlimit="10" stroke-dasharray="" stroke-dashoffset="0" font-family="none" font-weight="none" font-size="none" text-anchor="none" style="mix-blend-mode: normal"><g transform="scale(5.33333,5.33333)"><path d="M29,24.009c0.001,1.442 -0.259,2.873 -0.768,4.223c-1.35,0.508 -2.781,0.768 -4.224,0.768h-0.017c-1.486,-0.002 -2.909,-0.273 -4.222,-0.769c-0.509,-1.349 -0.769,-2.78 -0.769,-4.222v-0.017c-0.001,-1.442 0.259,-2.872 0.767,-4.222c1.35,-0.509 2.781,-0.77 4.224,-0.769h0.017c1.443,-0.001 2.874,0.26 4.224,0.769c0.509,1.349 0.769,2.78 0.768,4.222v0.017zM43.722,20.667h-11.674l8.255,-8.255c-0.648,-0.91 -1.371,-1.765 -2.161,-2.555v-0.001c-0.79,-0.789 -1.644,-1.511 -2.554,-2.159l-8.255,8.255v-11.674c-1.098,-0.184 -2.21,-0.277 -3.323,-0.278h-0.021c-1.132,0.001 -2.242,0.097 -3.323,0.278v11.674l-8.255,-8.255c-0.91,0.647 -1.764,1.37 -2.553,2.16l-0.003,0.004c-0.789,0.789 -1.51,1.642 -2.158,2.551l8.256,8.255h-11.675c0,0 -0.278,2.193 -0.278,3.326v0.014c0,1.134 0.096,2.245 0.278,3.326h11.674l-8.256,8.255c1.299,1.822 2.892,3.416 4.715,4.715l8.255,-8.256v11.675c1.097,0.184 2.207,0.277 3.319,0.278h0.028c1.112,-0.001 2.222,-0.094 3.319,-0.278v-11.675l8.256,8.256c0.909,-0.648 1.763,-1.37 2.553,-2.159l0.002,-0.002c0.789,-0.79 1.511,-1.644 2.159,-2.553l-8.256,-8.255h11.676c0.182,-1.08 0.277,-2.188 0.278,-3.319v-0.029c-0.001,-1.132 -0.096,-2.24 -0.278,-3.319z"></path></g></g></svg>